{
    "asset" : {
        "generator" : "Khronos glTF Blender I/O v1.2.75",
        "version" : "2.0"
    },
    "scene" : 0,
    "scenes" : [
        {
            "name" : "Scene",
            "nodes" : [
                0,
                1,
                2,
                3,
                4,
                5,
                6,
                7
            ]
        }
    ],
    "nodes" : [
        {
            "mesh" : 0,
            "name" : "\u7acb\u65b9\u4f53.002",
            "scale" : [
                0.8161903619766235,
                0.01953357458114624,
                0.3694014251232147
            ],
            "translation" : [
                -0.5423319935798645,
                -0.14248408377170563,
                -0.32181912660598755
            ]
        },
        {
            "mesh" : 1,
            "name" : "\u7acb\u65b9\u4f53.003",
            "scale" : [
                0.010965025052428246,
                0.03229748085141182,
                0.010965025052428246
            ],
            "translation" : [
                -1.3999841213226318,
                -0.10018213093280792,
                -0.044364769011735916
            ]
        },
        {
            "mesh" : 2,
            "name" : "\u7acb\u65b9\u4f53.004",
            "rotation" : [
                -0.5020886659622192,
                0.5020886063575745,
                -0.4979025721549988,
                0.49790260195732117
            ],
            "scale" : [
                0.013160008937120438,
                0.30987975001335144,
                0.013159502297639847
            ],
            "translation" : [
                -1.3973804712295532,
                -0.06432300806045532,
                -0.31134992837905884
            ]
        },
        {
            "mesh" : 3,
            "name" : "\u5e73\u9762",
            "scale" : [
                0.7856060266494751,
                0.765166699886322,
                0.28813788294792175
            ],
            "translation" : [
                -0.6158552765846252,
                -0.14164690673351288,
                -0.31324946880340576
            ]
        },
        {
            "mesh" : 4,
            "name" : "\u7acb\u65b9\u4f53.006",
            "scale" : [
                0.010965025052428246,
                0.03229748085141182,
                0.010965025052428246
            ],
            "translation" : [
                -1.3999841213226318,
                -0.10018213093280792,
                -0.5780423879623413
            ]
        },
        {
            "mesh" : 5,
            "name" : "\u7acb\u65b9\u4f53.007",
            "scale" : [
                0.010965025052428246,
                0.03229748085141182,
                0.010965025052428246
            ],
            "translation" : [
                0.17344629764556885,
                -0.10018213093280792,
                -0.044364769011735916
            ]
        },
        {
            "mesh" : 6,
            "name" : "\u7acb\u65b9\u4f53.008",
            "rotation" : [
                -0.5020886659622192,
                0.5020886063575745,
                -0.4979025721549988,
                0.49790260195732117
            ],
            "scale" : [
                0.013160008937120438,
                0.30987975001335144,
                0.013159502297639847
            ],
            "translation" : [
                0.17604994773864746,
                -0.06432300806045532,
                -0.31134992837905884
            ]
        },
        {
            "mesh" : 7,
            "name" : "\u7acb\u65b9\u4f53.009",
            "scale" : [
                0.010965025052428246,
                0.03229748085141182,
                0.010965025052428246
            ],
            "translation" : [
                0.17344629764556885,
                -0.10018213093280792,
                -0.5780423879623413
            ]
        }
    ],
    "materials" : [
        {
            "doubleSided" : true,
            "emissiveFactor" : [
                0,
                0,
                0
            ],
            "name" : "\u6750\u8d28",
            "pbrMetallicRoughness" : {
                "baseColorTexture" : {
                    "index" : 0,
                    "texCoord" : 0
                },
                "metallicFactor" : 0,
                "roughnessFactor" : 0.5
            }
        },
        {
            "doubleSided" : true,
            "emissiveFactor" : [
                0,
                0,
                0
            ],
            "name" : "Material.001",
            "pbrMetallicRoughness" : {
                "baseColorTexture" : {
                    "index" : 1,
                    "texCoord" : 0
                },
                "metallicFactor" : 0,
                "roughnessFactor" : 0.4000000059604645
            }
        },
        {
            "doubleSided" : true,
            "emissiveFactor" : [
                0,
                0,
                0
            ],
            "name" : "zhu.001",
            "pbrMetallicRoughness" : {
                "baseColorTexture" : {
                    "index" : 2,
                    "texCoord" : 0
                },
                "metallicFactor" : 0,
                "roughnessFactor" : 0.5
            }
        }
    ],
    "meshes" : [
        {
            "name" : "\u7acb\u65b9\u4f53.001",
            "primitives" : [
                {
                    "attributes" : {
                        "POSITION" : 0,
                        "NORMAL" : 1,
                        "TEXCOORD_0" : 2
                    },
                    "indices" : 3,
                    "material" : 0
                }
            ]
        },
        {
            "name" : "\u7acb\u65b9\u4f53.002",
            "primitives" : [
                {
                    "attributes" : {
                        "POSITION" : 4,
                        "NORMAL" : 5,
                        "TEXCOORD_0" : 6
                    },
                    "indices" : 7,
                    "material" : 1
                }
            ]
        },
        {
            "name" : "\u7acb\u65b9\u4f53.003",
            "primitives" : [
                {
                    "attributes" : {
                        "POSITION" : 8,
                        "NORMAL" : 9,
                        "TEXCOORD_0" : 10
                    },
                    "indices" : 7,
                    "material" : 1
                }
            ]
        },
        {
            "name" : "\u5e73\u9762",
            "primitives" : [
                {
                    "attributes" : {
                        "POSITION" : 11,
                        "NORMAL" : 12,
                        "TEXCOORD_0" : 13
                    },
                    "indices" : 14,
                    "material" : 2
                }
            ]
        },
        {
            "name" : "\u7acb\u65b9\u4f53.004",
            "primitives" : [
                {
                    "attributes" : {
                        "POSITION" : 15,
                        "NORMAL" : 16,
                        "TEXCOORD_0" : 17
                    },
                    "indices" : 7,
                    "material" : 1
                }
            ]
        },
        {
            "name" : "\u7acb\u65b9\u4f53.005",
            "primitives" : [
                {
                    "attributes" : {
                        "POSITION" : 18,
                        "NORMAL" : 19,
                        "TEXCOORD_0" : 20
                    },
                    "indices" : 7,
                    "material" : 1
                }
            ]
        },
        {
            "name" : "\u7acb\u65b9\u4f53.006",
            "primitives" : [
                {
                    "attributes" : {
                        "POSITION" : 21,
                        "NORMAL" : 22,
                        "TEXCOORD_0" : 23
                    },
                    "indices" : 7,
                    "material" : 1
                }
            ]
        },
        {
            "name" : "\u7acb\u65b9\u4f53.007",
            "primitives" : [
                {
                    "attributes" : {
                        "POSITION" : 24,
                        "NORMAL" : 25,
                        "TEXCOORD_0" : 26
                    },
                    "indices" : 7,
                    "material" : 1
                }
            ]
        }
    ],
    "textures" : [
        {
            "source" : 0
        },
        {
            "source" : 0
        },
        {
            "source" : 1
        }
    ],
    "images" : [
        {
            "bufferView" : 4,
            "mimeType" : "image/jpeg",
            "name" : "\u635e\u7eb8\u684601"
        },
        {
            "bufferView" : 16,
            "mimeType" : "image/jpeg",
            "name" : "\u7af9\u5e18"
        }
    ],
    "accessors" : [
        {
            "bufferView" : 0,
            "componentType" : 5126,
            "count" : 152,
            "max" : [
                0.9116448163986206,
                1.0000004768371582,
                0.8668125867843628
            ],
            "min" : [
                -1.0861718654632568,
                -1.0224573612213135,
                -0.8163248896598816
            ],
            "type" : "VEC3"
        },
        {
            "bufferView" : 1,
            "componentType" : 5126,
            "count" : 152,
            "type" : "VEC3"
        },
        {
            "bufferView" : 2,
            "componentType" : 5126,
            "count" : 152,
            "type" : "VEC2"
        },
        {
            "bufferView" : 3,
            "componentType" : 5123,
            "count" : 288,
            "type" : "SCALAR"
        },
        {
            "bufferView" : 5,
            "componentType" : 5126,
            "count" : 24,
            "max" : [
                1,
                1,
                1
            ],
            "min" : [
                -1,
                -1,
                -1
            ],
            "type" : "VEC3"
        },
        {
            "bufferView" : 6,
            "componentType" : 5126,
            "count" : 24,
            "type" : "VEC3"
        },
        {
            "bufferView" : 7,
            "componentType" : 5126,
            "count" : 24,
            "type" : "VEC2"
        },
        {
            "bufferView" : 8,
            "componentType" : 5123,
            "count" : 36,
            "type" : "SCALAR"
        },
        {
            "bufferView" : 9,
            "componentType" : 5126,
            "count" : 24,
            "max" : [
                1,
                1,
                1
            ],
            "min" : [
                -1,
                -0.9999531507492065,
                -1.40205717086792
            ],
            "type" : "VEC3"
        },
        {
            "bufferView" : 10,
            "componentType" : 5126,
            "count" : 24,
            "type" : "VEC3"
        },
        {
            "bufferView" : 11,
            "componentType" : 5126,
            "count" : 24,
            "type" : "VEC2"
        },
        {
            "bufferView" : 12,
            "componentType" : 5126,
            "count" : 4,
            "max" : [
                1,
                0,
                1
            ],
            "min" : [
                -1,
                0,
                -1
            ],
            "type" : "VEC3"
        },
        {
            "bufferView" : 13,
            "componentType" : 5126,
            "count" : 4,
            "type" : "VEC3"
        },
        {
            "bufferView" : 14,
            "componentType" : 5126,
            "count" : 4,
            "type" : "VEC2"
        },
        {
            "bufferView" : 15,
            "componentType" : 5123,
            "count" : 6,
            "type" : "SCALAR"
        },
        {
            "bufferView" : 17,
            "componentType" : 5126,
            "count" : 24,
            "max" : [
                1,
                1,
                1
            ],
            "min" : [
                -1,
                -1,
                -1
            ],
            "type" : "VEC3"
        },
        {
            "bufferView" : 18,
            "componentType" : 5126,
            "count" : 24,
            "type" : "VEC3"
        },
        {
            "bufferView" : 19,
            "componentType" : 5126,
            "count" : 24,
            "type" : "VEC2"
        },
        {
            "bufferView" : 20,
            "componentType" : 5126,
            "count" : 24,
            "max" : [
                1,
                1,
                1
            ],
            "min" : [
                -1,
                -1,
                -1
            ],
            "type" : "VEC3"
        },
        {
            "bufferView" : 21,
            "componentType" : 5126,
            "count" : 24,
            "type" : "VEC3"
        },
        {
            "bufferView" : 22,
            "componentType" : 5126,
            "count" : 24,
            "type" : "VEC2"
        },
        {
            "bufferView" : 23,
            "componentType" : 5126,
            "count" : 24,
            "max" : [
                1,
                1,
                1
            ],
            "min" : [
                -1,
                -0.9999531507492065,
                -1.40205717086792
            ],
            "type" : "VEC3"
        },
        {
            "bufferView" : 24,
            "componentType" : 5126,
            "count" : 24,
            "type" : "VEC3"
        },
        {
            "bufferView" : 25,
            "componentType" : 5126,
            "count" : 24,
            "type" : "VEC2"
        },
        {
            "bufferView" : 26,
            "componentType" : 5126,
            "count" : 24,
            "max" : [
                1,
                1,
                1
            ],
            "min" : [
                -1,
                -1,
                -1
            ],
            "type" : "VEC3"
        },
        {
            "bufferView" : 27,
            "componentType" : 5126,
            "count" : 24,
            "type" : "VEC3"
        },
        {
            "bufferView" : 28,
            "componentType" : 5126,
            "count" : 24,
            "type" : "VEC2"
        }
    ],
    "bufferViews" : [
        {
            "buffer" : 0,
            "byteLength" : 1824,
            "byteOffset" : 0
        },
        {
            "buffer" : 0,
            "byteLength" : 1824,
            "byteOffset" : 1824
        },
        {
            "buffer" : 0,
            "byteLength" : 1216,
            "byteOffset" : 3648
        },
        {
            "buffer" : 0,
            "byteLength" : 576,
            "byteOffset" : 4864
        },
        {
            "buffer" : 0,
            "byteLength" : 1068138,
            "byteOffset" : 5440
        },
        {
            "buffer" : 0,
            "byteLength" : 288,
            "byteOffset" : 1073580
        },
        {
            "buffer" : 0,
            "byteLength" : 288,
            "byteOffset" : 1073868
        },
        {
            "buffer" : 0,
            "byteLength" : 192,
            "byteOffset" : 1074156
        },
        {
            "buffer" : 0,
            "byteLength" : 72,
            "byteOffset" : 1074348
        },
        {
            "buffer" : 0,
            "byteLength" : 288,
            "byteOffset" : 1074420
        },
        {
            "buffer" : 0,
            "byteLength" : 288,
            "byteOffset" : 1074708
        },
        {
            "buffer" : 0,
            "byteLength" : 192,
            "byteOffset" : 1074996
        },
        {
            "buffer" : 0,
            "byteLength" : 48,
            "byteOffset" : 1075188
        },
        {
            "buffer" : 0,
            "byteLength" : 48,
            "byteOffset" : 1075236
        },
        {
            "buffer" : 0,
            "byteLength" : 32,
            "byteOffset" : 1075284
        },
        {
            "buffer" : 0,
            "byteLength" : 12,
            "byteOffset" : 1075316
        },
        {
            "buffer" : 0,
            "byteLength" : 52632,
            "byteOffset" : 1075328
        },
        {
            "buffer" : 0,
            "byteLength" : 288,
            "byteOffset" : 1127960
        },
        {
            "buffer" : 0,
            "byteLength" : 288,
            "byteOffset" : 1128248
        },
        {
            "buffer" : 0,
            "byteLength" : 192,
            "byteOffset" : 1128536
        },
        {
            "buffer" : 0,
            "byteLength" : 288,
            "byteOffset" : 1128728
        },
        {
            "buffer" : 0,
            "byteLength" : 288,
            "byteOffset" : 1129016
        },
        {
            "buffer" : 0,
            "byteLength" : 192,
            "byteOffset" : 1129304
        },
        {
            "buffer" : 0,
            "byteLength" : 288,
            "byteOffset" : 1129496
        },
        {
            "buffer" : 0,
            "byteLength" : 288,
            "byteOffset" : 1129784
        },
        {
            "buffer" : 0,
            "byteLength" : 192,
            "byteOffset" : 1130072
        },
        {
            "buffer" : 0,
            "byteLength" : 288,
            "byteOffset" : 1130264
        },
        {
            "buffer" : 0,
            "byteLength" : 288,
            "byteOffset" : 1130552
        },
        {
            "buffer" : 0,
            "byteLength" : 192,
            "byteOffset" : 1130840
        }
    ],
    "buffers" : [
        {
            "byteLength" : 1131032,
            "uri" : "data:application/octet-stream;base64,"
        }
    ]
}
