{
    "asset" : {
        "generator" : "Khronos glTF Blender I/O v1.3.48",
        "version" : "2.0"
    },
    "scene" : 0,
    "scenes" : [
        {
            "name" : "Scene",
            "nodes" : [
                0
            ]
        }
    ],
    "nodes" : [
        {
            "mesh" : 0,
            "name" : "\u5bf9\u8c61002",
            "rotation" : [
                0.9999842643737793,
                1.4166158507578075e-05,
                -0.00296012288890779,
                0.0047841439954936504
            ],
            "scale" : [
                0.06974944472312927,
                0.06297509372234344,
                0.06297508627176285
            ],
            "translation" : [
                1.1442723274230957,
                -0.15780587494373322,
                -0.3820071220397949
            ]
        }
    ],
    "materials" : [
        {
            "doubleSided" : true,
            "emissiveFactor" : [
                0,
                0,
                0
            ],
            "name" : "tong",
            "pbrMetallicRoughness" : {
                "baseColorTexture" : {
                    "index" : 0,
                    "texCoord" : 0
                },
                "metallicFactor" : 0,
                "roughnessFactor" : 0.5
            }
        }
    ],
    "meshes" : [
        {
            "name" : "Mesh.001",
            "primitives" : [
                {
                    "attributes" : {
                        "POSITION" : 0,
                        "NORMAL" : 1,
                        "TEXCOORD_0" : 2
                    },
                    "indices" : 3,
                    "material" : 0
                }
            ]
        }
    ],
    "textures" : [
        {
            "source" : 0
        }
    ],
    "images" : [
        {
            "bufferView" : 4,
            "mimeType" : "image/jpeg",
            "name" : "tong2"
        }
    ],
    "accessors" : [
        {
            "bufferView" : 0,
            "componentType" : 5126,
            "count" : 1364,
            "max" : [
                4.554123878479004,
                13.265056610107422,
                5.740767955780029
            ],
            "min" : [
                -5.840253829956055,
                1.979049563407898,
                -5.676401138305664
            ],
            "type" : "VEC3"
        },
        {
            "bufferView" : 1,
            "componentType" : 5126,
            "count" : 1364,
            "type" : "VEC3"
        },
        {
            "bufferView" : 2,
            "componentType" : 5126,
            "count" : 1364,
            "type" : "VEC2"
        },
        {
            "bufferView" : 3,
            "componentType" : 5123,
            "count" : 2400,
            "type" : "SCALAR"
        }
    ],
    "bufferViews" : [
        {
            "buffer" : 0,
            "byteLength" : 16368,
            "byteOffset" : 0
        },
        {
            "buffer" : 0,
            "byteLength" : 16368,
            "byteOffset" : 16368
        },
        {
            "buffer" : 0,
            "byteLength" : 10912,
            "byteOffset" : 32736
        },
        {
            "buffer" : 0,
            "byteLength" : 4800,
            "byteOffset" : 43648
        },
        {
            "buffer" : 0,
            "byteLength" : 841483,
            "byteOffset" : 48448
        }
    ],
    "buffers" : [
        {
            "byteLength" : 889932,
            "uri" : "data:application/octet-stream;base64,"
        }
    ]
}
